<svg version="1.1" id="Layer_1" xmlns="http://www.w3.org/2000/svg" xmlns:xlink="http://www.w3.org/1999/xlink" x="0px" y="0px"
	 width="100%" viewBox="0 0 624 640" enable-background="new 0 0 624 640" xml:space="preserve">
<path fill="#000000" opacity="1.000000" stroke="none" 
	d="
M428.216064,605.225525 
	C428.049347,607.583374 428.864014,609.659912 427.223145,611.567749 
	C423.356201,611.971008 421.125977,609.239746 419.349640,606.564636 
	C416.311218,601.988953 412.667145,600.665833 407.417725,602.351135 
	C403.013031,603.765076 398.233765,603.876038 393.954681,605.881165 
	C392.134552,606.734070 390.427063,607.319397 390.756500,610.135925 
	C391.119080,613.235474 388.733398,614.027405 386.117096,613.804321 
	C383.111053,613.548035 380.366577,612.588257 377.702911,611.010559 
	C368.765961,605.717346 359.410675,602.142578 348.730682,605.072693 
	C347.659180,605.366699 346.345154,605.349304 345.283813,605.021973 
	C328.787445,599.934937 311.806305,599.730896 294.837219,600.452271 
	C284.231628,600.903259 273.674530,602.490906 263.094818,603.560364 
	C262.292297,603.641541 261.483276,603.658325 260.814789,603.697083 
	C258.966492,601.915894 260.184235,599.657898 259.201111,597.460388 
	C254.875198,598.888123 251.632294,596.342651 248.132568,594.137573 
	C235.286682,586.043640 221.536102,579.608948 208.087006,572.623047 
	C204.992493,571.015625 201.557877,571.801270 198.311478,571.505066 
	C189.056992,570.660583 180.847092,567.482422 173.633240,561.727783 
	C168.227280,557.415405 162.271774,554.968201 155.241440,555.230713 
	C149.250061,555.454407 143.210892,555.516541 137.393784,553.807861 
	C125.617943,550.348816 117.638657,542.450439 112.355362,531.643616 
	C109.050606,524.883850 106.845634,517.754456 105.617882,510.308105 
	C104.763451,505.125916 102.503487,500.762421 97.256691,498.765533 
	C95.322952,498.029572 94.354698,496.766693 93.759888,494.910248 
	C83.926598,464.219818 69.436363,435.459656 56.673286,405.990967 
	C52.513577,396.386597 52.378624,386.704529 52.886086,376.822235 
	C60.344685,374.199646 60.252182,374.216217 58.869286,366.501892 
	C55.337082,346.797729 48.132713,328.414459 38.660118,310.904083 
	C36.308937,306.557861 35.502365,302.614166 36.495098,297.662506 
	C39.659145,281.880554 41.353359,265.848389 44.456451,250.028702 
	C49.093567,226.388474 60.126858,206.739426 78.512482,191.141510 
	C83.459961,186.944199 87.948418,182.210617 92.758492,177.845413 
	C100.068085,171.211838 105.687080,163.586395 108.107033,153.803925 
	C108.952934,150.384399 110.929504,147.444931 113.489510,144.930450 
	C128.221771,130.460175 142.520050,115.568184 158.071579,101.908592 
	C164.915833,95.896996 172.047287,94.838188 180.214127,96.130219 
	C182.541000,96.498344 184.834671,96.590202 187.160324,96.671371 
	C190.365067,96.783226 192.228180,95.489388 193.586365,92.386391 
	C199.931686,77.889473 211.925552,71.038895 227.871353,72.443619 
	C230.538239,72.678551 232.686264,71.425316 234.785065,70.034317 
	C239.682037,66.788795 243.639526,62.470749 247.923080,58.524597 
	C249.746933,56.844395 251.542618,54.498398 254.300171,55.450378 
	C257.488556,56.551098 255.999908,59.694862 256.342133,62.008244 
	C256.484222,62.968937 256.560577,63.939354 256.654449,64.792610 
	C258.406830,65.679329 259.393066,64.530807 260.446503,63.839756 
	C275.523376,53.949696 292.609344,48.650951 309.323944,42.534611 
	C313.409027,41.039768 316.737122,43.501183 319.678833,45.956261 
	C323.808441,49.402775 327.766266,53.019676 333.614624,51.957630 
	C335.669037,57.145435 335.141907,61.951920 333.960938,66.630035 
	C332.762482,71.377625 328.549469,74.040268 322.284790,74.256386 
	C317.292450,74.428612 312.287842,74.315315 307.289917,74.243958 
	C281.374023,73.873940 257.345032,80.928650 234.541931,92.750420 
	C216.781784,101.957787 199.938751,112.759789 182.623367,122.740990 
	C175.745392,126.705688 170.418945,132.517487 164.624237,137.754059 
	C145.075867,155.419540 125.611961,173.216248 111.669060,195.949188 
	C99.482140,215.819138 92.194534,237.327393 90.171646,260.687561 
	C88.552956,279.380096 86.186432,298.008301 84.114952,316.660950 
	C83.611649,321.192932 81.976440,325.391937 79.738922,329.316345 
	C76.545013,334.918182 75.839088,340.612732 77.007637,347.068359 
	C79.073090,358.478760 80.298615,370.041199 81.918907,381.855072 
	C79.407356,382.487579 75.849564,379.913727 74.669998,383.935516 
	C73.883926,386.615662 75.426384,388.764923 76.793816,390.844299 
	C78.967010,394.148987 81.198402,390.729950 83.790688,390.750580 
	C87.749786,397.573761 90.319893,405.158356 93.082497,412.584991 
	C98.292946,426.592133 106.387482,438.515350 116.729256,449.226135 
	C141.979645,475.377380 169.341736,499.305756 195.433411,524.567505 
	C199.867264,528.860291 204.122498,525.489197 208.351273,524.147034 
	C209.690643,523.721924 210.790344,522.541687 212.029236,521.686646 
	C213.896118,525.784790 213.896118,525.784790 209.074554,532.405884 
	C212.893524,535.886902 217.519104,538.088562 222.147629,540.200378 
	C234.088654,545.648438 246.634415,548.050049 259.771332,548.958801 
	C277.988892,550.219116 296.174622,552.731445 313.783936,557.694092 
	C322.894135,560.261536 331.123657,557.553467 339.704041,556.287537 
	C342.985168,555.803528 346.294434,554.629089 349.521210,554.839233 
	C356.442322,555.289795 361.689697,552.783813 366.355896,547.862122 
	C368.178162,545.940125 369.802521,544.361816 369.589233,541.568054 
	C369.539429,540.915344 369.531677,539.736511 369.772125,539.661865 
	C374.645416,538.149597 372.094421,534.736633 371.471954,531.529663 
	C374.569061,531.727112 375.541473,534.104126 376.930695,535.655701 
	C380.536224,539.682617 385.530884,539.242371 388.211670,534.440735 
	C388.678802,533.604004 388.962708,532.664978 389.256866,531.953125 
	C391.303650,531.265198 391.996307,533.357117 393.771362,533.509216 
	C396.256165,527.191772 401.814301,530.116760 406.206726,529.528931 
	C408.670654,530.640625 405.466736,536.992798 411.081604,534.788086 
	C413.809753,533.716858 415.232208,530.472473 418.222046,529.601807 
	C425.791016,536.263428 426.737854,536.293945 435.332306,530.685669 
	C468.280792,509.185211 500.078400,486.090973 530.954468,461.717773 
	C532.392517,460.582581 533.862305,459.486877 535.335388,458.397156 
	C537.469055,456.818726 538.222595,458.054047 538.545654,460.138550 
	C539.832092,458.682587 539.486938,456.491913 541.545593,455.064972 
	C546.548096,457.347321 548.920410,453.876740 551.357422,449.913605 
	C555.486389,443.198975 560.651917,437.325104 566.909058,432.467377 
	C568.319702,431.372253 569.709717,430.224365 572.242798,429.669373 
	C570.132446,437.923798 566.687561,445.059021 563.532471,452.270508 
	C552.568237,477.331116 538.154724,500.227783 520.049072,520.765137 
	C517.922607,523.177124 516.461670,525.656250 516.160217,529.114929 
	C515.581787,535.752441 511.474152,539.103210 504.783936,539.250427 
	C503.618134,539.276123 502.449982,539.216187 501.284943,539.255493 
	C495.007111,539.467224 493.382477,541.375610 494.423309,547.768433 
	C490.983032,547.231934 488.117157,544.274353 484.490326,545.576843 
	C481.225098,546.749634 477.773438,547.485168 474.068665,550.085938 
	C477.620972,555.497559 483.695465,560.070129 481.959320,568.020874 
	C478.609283,567.498962 477.560425,564.524231 475.777863,562.625305 
	C473.468018,560.164612 471.462982,560.059814 468.894226,562.053589 
	C460.539948,568.537781 454.216675,577.029724 446.739258,584.380554 
	C444.557526,586.525330 444.908905,589.679565 445.202362,592.489990 
	C445.595428,596.254211 444.036835,597.726257 440.369843,597.357056 
	C439.049561,597.224121 437.705688,597.309143 436.372803,597.320984 
	C430.238617,597.375488 428.892426,598.612732 428.216064,605.225525 
z"/>
<path fill="#000000" opacity="1.000000" stroke="none" 
	d="
M456.489807,69.378365 
	C480.526337,78.776329 501.331512,92.221115 517.701782,111.895439 
	C524.643921,120.238731 529.567505,129.987473 535.353943,139.128723 
	C547.830261,158.838531 559.873413,178.827759 572.637085,198.347427 
	C576.539917,204.316055 577.395569,210.641678 578.192444,217.183975 
	C580.622375,237.132263 583.580994,257.041321 583.372925,277.220947 
	C583.366760,277.817932 583.684937,278.418243 583.929688,279.295837 
	C588.209106,277.799622 588.411377,271.773407 594.088562,271.518951 
	C591.362549,281.259460 588.184509,290.632263 586.690796,300.356293 
	C585.183960,310.165375 584.178650,320.051483 582.390442,329.887634 
	C578.946289,317.232910 581.112488,304.556885 582.400696,291.463928 
	C580.425720,292.027039 578.714966,294.249634 576.573425,292.653198 
	C574.515320,291.118988 573.872070,288.755066 573.899414,286.444397 
	C573.937561,283.221436 572.395630,281.381531 570.002808,279.460266 
	C560.136536,271.538300 553.935364,260.892639 548.735901,249.614258 
	C547.036743,245.928574 549.613281,242.508621 550.144714,238.978851 
	C551.575256,229.476379 549.780518,220.833084 541.635742,215.495193 
	C528.583557,206.941040 525.108704,193.567825 521.727234,179.938614 
	C520.813965,176.257446 520.414001,172.434799 520.745300,168.641632 
	C518.127563,167.773834 516.614563,169.467575 514.949341,170.289505 
	C509.187378,173.133484 504.175598,172.767868 498.687012,168.881943 
	C474.893982,152.036438 451.693085,134.334320 427.032166,118.734550 
	C419.572449,114.015739 411.877197,109.670380 404.389984,104.993576 
	C398.657074,101.412560 392.055511,102.765717 385.925079,101.442123 
	C377.286102,99.576912 369.438965,96.263367 362.527130,90.775330 
	C359.485291,88.360123 356.943817,85.535477 355.726746,81.725754 
	C353.581879,75.011810 356.757721,68.906929 363.472168,66.759071 
	C366.537262,65.778595 369.673309,65.692673 372.849854,65.652382 
	C378.147034,65.585197 383.934021,67.669945 387.884430,61.715565 
	C388.921661,60.152145 391.519989,60.232185 393.511108,60.096340 
	C415.039581,58.627571 436.063599,60.664036 456.489807,69.378365 
z"/>
<path fill="#000000" opacity="1.000000" stroke="none" 
	d="
M483.182007,280.298523 
	C483.204529,290.919342 482.994141,301.059937 482.611877,311.211334 
	C482.205872,321.993835 483.087158,332.821899 483.291748,343.632233 
	C483.342621,346.319427 485.180176,346.899017 487.096161,347.496155 
	C488.591614,347.962189 489.395203,348.784882 489.072754,350.401672 
	C488.791840,351.810425 487.681549,352.150574 486.467621,352.275116 
	C485.144775,352.410858 483.763519,352.303131 482.501465,352.646271 
	C478.125977,353.835968 474.234467,353.913452 472.310730,348.623352 
	C467.538635,350.212067 463.953339,353.480652 458.662262,353.525696 
	C445.833954,353.634888 440.077576,344.426910 437.920471,333.893188 
	C436.878967,328.807343 436.842041,322.998962 438.225189,318.040833 
	C441.119019,307.667328 453.424622,298.303101 466.098633,300.238098 
	C472.306458,301.185883 472.609497,300.990326 472.674988,294.646729 
	C472.685303,293.647797 472.574493,292.636688 472.691925,291.651733 
	C473.177643,287.576813 471.997192,284.855347 467.412689,284.408569 
	C464.627991,284.137207 463.906860,282.348114 465.579651,280.273987 
	C468.117920,277.126801 480.055054,276.981628 483.182007,280.298523 
M472.683380,337.120026 
	C472.689667,329.128143 472.708252,321.136261 472.692993,313.144440 
	C472.689514,311.335846 472.834534,309.549408 470.756866,308.426025 
	C460.888977,303.090637 452.273346,308.227020 449.216339,318.864624 
	C447.218872,325.815125 449.807251,332.337952 450.525757,339.035889 
	C450.707031,340.725739 451.952637,341.890686 453.090271,343.168762 
	C458.090118,348.785675 463.252167,345.842438 468.567078,343.883942 
	C471.479523,342.810730 473.065582,341.202972 472.683380,337.120026 
z"/>
<path fill="#000000" opacity="1.000000" stroke="none" 
	d="
M262.322235,351.159180 
	C246.295685,341.746887 245.630005,321.170929 254.769226,309.140076 
	C261.170349,300.713623 275.421387,296.357391 285.533752,302.637146 
	C291.962952,306.629639 295.731232,311.951691 298.426758,318.468872 
	C301.349365,325.535095 296.961456,345.019897 290.526581,348.825623 
	C282.673584,353.470123 273.711334,354.868225 264.595856,351.882782 
	C263.963928,351.675812 263.324432,351.491974 262.322235,351.159180 
M281.618774,345.185760 
	C283.851532,344.041199 284.878387,342.093170 285.617676,339.766907 
	C287.993530,332.291290 287.497009,324.700745 286.449066,317.159363 
	C285.657806,311.465149 281.142609,306.982239 276.285553,306.231354 
	C269.974121,305.255646 266.748199,307.161560 263.285675,313.648163 
	C259.940277,319.915283 261.457031,326.613037 261.313293,333.178314 
	C261.061859,344.662933 271.994141,351.155426 281.618774,345.185760 
z"/>
<path fill="#000000" opacity="1.000000" stroke="none" 
	d="
M332.647156,328.449921 
	C331.940216,317.099670 335.873596,308.451233 345.577087,303.067352 
	C352.859009,299.027039 360.197205,298.222046 368.198212,302.335907 
	C379.547607,308.171387 384.366150,319.990051 381.684906,331.548676 
	C381.120789,333.980560 381.602142,336.476349 380.672119,338.915802 
	C377.023621,348.485565 369.503784,352.441772 359.962036,353.266602 
	C350.383575,354.094635 342.031677,351.132019 336.502625,343.059204 
	C333.740631,339.026428 332.148590,334.091064 332.647156,328.449921 
M367.632935,311.910065 
	C362.303223,303.988037 352.350922,304.162750 347.586151,312.058563 
	C342.179535,321.018036 343.839355,330.327118 346.054962,339.547455 
	C347.464935,345.415131 352.460938,347.534088 357.925171,347.480896 
	C361.891235,347.442291 366.675598,346.275330 367.990540,342.244293 
	C371.166901,332.506683 372.606201,322.462280 367.632935,311.910065 
z"/>
<path fill="#000000" opacity="1.000000" stroke="none" 
	d="
M394.791809,302.636902 
	C400.554626,300.421967 406.276978,300.340118 411.864441,299.891907 
	C419.763245,299.258240 425.938507,306.118225 426.186401,315.520203 
	C426.410065,324.001831 426.390533,332.493591 426.284180,340.978424 
	C426.242401,344.313538 426.662231,346.952667 430.631531,347.483337 
	C432.026245,347.669800 433.255188,348.222076 433.009827,350.024353 
	C432.787231,351.659515 431.622681,352.129486 430.187103,352.293152 
	C427.548584,352.593933 424.920471,353.032043 422.274475,353.200500 
	C420.994415,353.282013 418.849731,353.297729 418.519104,352.634308 
	C415.932373,347.443481 413.191956,350.815857 410.049591,351.920135 
	C399.106110,355.765961 388.493134,353.310150 387.960358,338.919312 
	C387.821198,335.160614 390.125275,331.360748 393.643311,329.504211 
	C398.737396,326.815887 403.887146,324.190399 410.114136,324.565582 
	C416.170654,324.930542 417.264679,323.577301 416.401245,317.624023 
	C415.719452,312.923035 416.404724,307.391479 409.510376,305.923309 
	C403.158478,304.570648 398.795319,307.155792 398.174377,313.532135 
	C397.973450,315.595367 397.835358,317.719910 395.241547,318.054291 
	C392.192749,318.447327 392.515411,315.614868 391.915863,313.977997 
	C391.243256,312.141693 391.202698,310.080719 390.812561,308.132416 
	C390.209625,305.121399 391.356415,303.318604 394.791809,302.636902 
M415.496155,329.921082 
	C410.778656,328.307007 406.638580,330.234802 402.761749,332.415375 
	C398.907684,334.583191 398.051575,339.200653 400.234772,343.201782 
	C401.998596,346.434326 406.146545,347.333435 410.197113,345.361206 
	C417.129150,341.985931 418.003754,339.739899 415.496155,329.921082 
z"/>
<path fill="#000000" opacity="1.000000" stroke="none" 
	d="
M179.891602,353.346954 
	C160.495590,354.676544 152.623611,337.459473 155.092575,320.373077 
	C157.076660,306.642365 166.777054,300.785400 178.954300,299.964691 
	C188.769623,299.303131 198.968323,313.507538 196.004440,323.046967 
	C195.047943,326.125488 192.464417,326.070282 189.948181,326.324371 
	C181.995743,327.127502 174.048553,326.237244 166.143311,326.164154 
	C163.739960,336.000580 170.286316,346.565033 180.012329,347.558350 
	C183.729050,347.937927 186.259720,345.627869 189.296982,344.446259 
	C190.798660,343.862030 192.398148,342.524628 193.693451,344.542206 
	C194.966064,346.524384 193.165588,347.538361 191.998856,348.636322 
	C188.733109,351.709747 185.041840,353.775787 179.891602,353.346954 
M182.664764,307.712921 
	C178.762665,304.622681 175.185684,306.345367 171.712036,308.537079 
	C168.068527,310.835968 166.780930,314.655029 165.818420,318.526825 
	C165.475693,319.905396 166.797409,320.522522 168.075378,320.547760 
	C172.376450,320.632843 176.699966,321.016724 180.963959,320.206482 
	C184.798386,319.477844 186.240234,317.197296 185.170029,313.324493 
	C184.682022,311.558563 184.357178,309.767487 182.664764,307.712921 
z"/>
<path fill="#000000" opacity="1.000000" stroke="none" 
	d="
M321.345520,287.282928 
	C321.591553,305.213379 320.659363,322.672302 321.296295,340.139282 
	C321.424500,343.654419 321.742401,346.376862 325.889771,347.062012 
	C327.386566,347.309296 328.695526,348.167328 328.354401,350.172211 
	C328.012482,352.182098 326.545563,352.298096 324.991730,352.314148 
	C319.005157,352.375946 313.018524,352.457520 307.031891,352.458801 
	C305.755249,352.459076 304.255280,352.561554 303.856812,350.773621 
	C303.459625,348.991699 304.309143,347.743713 305.875580,347.264771 
	C309.676086,346.102753 310.448120,342.952576 310.468506,339.798584 
	C310.574585,323.344452 311.296173,306.882385 310.071472,290.435944 
	C309.825134,287.127747 308.988159,284.535889 305.056763,284.298035 
	C303.725952,284.217499 302.990906,283.408356 302.868774,282.033295 
	C302.716614,280.320007 303.845062,279.654694 305.168945,279.255035 
	C309.663239,277.898224 314.256317,277.353760 318.951019,277.714569 
	C321.255249,277.891632 322.179810,279.159851 321.956604,281.371948 
	C321.773346,283.187866 321.553162,285.000061 321.345520,287.282928 
z"/>
<path fill="#000000" opacity="1.000000" stroke="none" 
	d="
M208.682739,307.678497 
	C218.878296,299.396179 230.137115,298.954803 241.959335,301.738007 
	C243.552902,302.113129 244.248093,302.994720 243.939835,304.589264 
	C243.183548,308.501404 242.433609,312.415466 241.602249,316.311981 
	C241.293594,317.758575 240.313217,318.648682 238.760834,318.621185 
	C237.303848,318.595398 236.911346,317.572296 236.640259,316.319092 
	C235.690521,311.928650 236.132126,306.620331 229.306519,306.354675 
	C223.826981,306.141388 218.238297,309.642303 215.354706,315.642975 
	C211.297073,324.086761 213.225555,337.389069 219.519379,344.370087 
	C221.541153,346.612610 230.000290,348.076813 233.144348,346.663452 
	C234.965652,345.844757 236.715012,344.867523 238.517792,344.005646 
	C239.798294,343.393494 241.120880,343.120483 242.072952,344.529510 
	C243.054153,345.981720 242.135300,346.945770 241.123169,347.951874 
	C237.410751,351.641998 233.180161,353.358002 227.743973,353.455872 
	C212.297180,353.734009 202.831558,343.297180 202.492935,328.476166 
	C202.317322,320.789795 203.670441,313.998596 208.682739,307.678497 
z"/>
<path fill="#000000" opacity="1.000000" stroke="none" 
	d="
M271.088654,378.323547 
	C269.961121,377.989807 269.159882,377.765167 268.514130,377.316620 
	C268.227539,377.117523 268.255035,376.466248 268.147614,376.049927 
	C269.487061,374.480713 271.577271,376.489136 273.012024,374.513550 
	C272.288635,371.396667 265.074097,370.292175 269.178497,365.363098 
	C270.870361,363.331268 273.502838,363.239563 275.750641,364.894135 
	C276.113403,367.599640 272.861359,366.466492 272.647919,368.527222 
	C273.267059,370.134979 274.877686,370.559601 276.978424,371.296570 
	C279.793365,362.731842 286.899048,369.549591 291.987030,367.136658 
	C293.846588,370.248627 291.931274,375.057434 296.384094,377.254669 
	C293.209778,378.514954 290.385040,379.507111 289.383575,374.427612 
	C285.742279,378.511169 281.850250,380.231873 277.635376,375.857819 
	C275.460052,377.055939 273.886261,378.803986 271.088654,378.323547 
M283.240234,375.319611 
	C285.325500,374.390167 285.847015,372.826263 284.537933,371.036346 
	C283.628693,369.793182 282.082123,369.856232 281.191803,371.078644 
	C279.826752,372.952881 280.597046,374.415070 283.240234,375.319611 
z"/>
<path fill="#000000" opacity="1.000000" stroke="none" 
	d="
M371.334473,378.257568 
	C370.189026,377.857849 369.252258,377.682281 368.738586,377.120087 
	C365.890228,374.002716 363.314880,372.784882 361.432556,378.504486 
	C358.047699,375.153381 358.481140,371.595398 359.739807,368.552338 
	C361.061737,365.356415 364.200348,366.415894 366.665070,367.347839 
	C367.943390,367.831177 368.829651,367.420959 369.950348,367.141174 
	C374.353088,366.042084 377.150970,367.602753 377.899658,371.408203 
	C378.698944,375.470825 376.757996,377.642944 371.334473,378.257568 
M370.218719,372.611115 
	C370.324188,373.991577 370.595459,375.359192 372.363190,375.241699 
	C373.665833,375.155090 374.274963,374.108002 374.460938,372.885986 
	C374.654480,371.614288 374.199738,370.584869 372.960785,370.144257 
	C371.329224,369.564087 370.515350,370.402740 370.218719,372.611115 
z"/>
<path fill="#000000" opacity="1.000000" stroke="none" 
	d="
M190.226257,374.908997 
	C187.174866,372.392944 184.680084,373.870819 182.655746,375.813599 
	C179.864334,378.492615 176.912033,379.729675 174.059753,376.657715 
	C171.667389,374.081085 171.765656,370.560974 174.391678,368.152679 
	C177.448364,365.349365 180.604767,366.384399 182.814255,369.634003 
	C184.140533,371.584625 185.642654,371.450287 187.554398,371.002625 
	C189.414032,370.567108 190.236130,369.633942 190.640488,367.710114 
	C191.581528,363.233063 193.653259,362.658630 198.390762,365.298828 
	C197.564362,367.128784 194.701385,365.987671 194.157516,368.188599 
	C194.123978,370.386475 196.884933,369.121033 197.368530,371.201050 
	C197.442429,373.127808 194.392044,371.834961 193.948318,373.668915 
	C193.614716,375.047699 194.088013,376.703278 192.765274,377.763794 
	C190.615768,378.073578 190.870026,376.315125 190.226257,374.908997 
M180.047562,371.395447 
	C179.222061,369.870850 178.097290,369.060944 176.493896,370.281219 
	C175.319611,371.174957 175.184418,372.539795 175.554077,373.877899 
	C175.840195,374.913574 176.629715,375.620789 177.741043,375.472015 
	C179.720474,375.207001 180.512070,373.934174 180.047562,371.395447 
z"/>
<path fill="#000000" opacity="1.000000" stroke="none" 
	d="
M305.163147,367.473022 
	C309.131531,367.332947 312.903931,365.704498 317.146545,367.860840 
	C313.556213,370.504883 315.201111,374.955719 312.985474,378.045227 
	C309.252380,376.292419 312.785400,371.503815 308.463165,369.748322 
	C307.154266,374.201996 307.116699,380.854004 299.616364,377.673309 
	C296.710052,376.440796 296.540314,370.784058 298.980652,367.165466 
	C302.150635,368.524780 299.710724,372.619415 302.496399,374.364014 
	C305.086884,372.759644 303.351471,369.609985 305.163147,367.473022 
z"/>
<path fill="#000000" opacity="1.000000" stroke="none" 
	d="
M405.603638,369.918762 
	C406.377655,371.113831 407.355042,372.788513 408.163910,370.934540 
	C410.993317,364.449554 416.231628,367.660278 420.878357,367.253052 
	C417.544159,368.919647 421.148590,372.932739 417.993683,374.359467 
	C418.362427,375.755981 420.529114,375.393829 420.635803,377.046600 
	C419.874908,379.043945 414.896118,378.799927 413.949768,376.689545 
	C413.032440,374.643951 414.596191,372.036896 412.564301,370.098358 
	C410.167358,371.502106 410.500946,374.215820 409.378357,376.155090 
	C408.239777,378.122040 406.677429,379.167816 405.293701,376.786621 
	C403.673798,373.999115 402.010071,371.017212 402.707275,367.497406 
	C404.847321,366.898590 404.970764,368.490448 405.603638,369.918762 
z"/>
<path fill="#000000" opacity="1.000000" stroke="none" 
	d="
M464.025330,374.984222 
	C459.585480,380.691376 453.184296,376.981537 447.826416,378.303741 
	C447.086365,378.486359 446.087677,377.779266 446.007385,376.890808 
	C445.631348,372.728638 445.287842,368.548553 446.251648,363.488007 
	C449.331238,366.627808 448.049377,369.597168 448.516022,372.163879 
	C448.759613,373.503845 448.642548,374.975006 450.358551,375.262512 
	C452.249786,375.579437 452.478271,374.169983 452.645386,372.763672 
	C453.096863,368.963470 454.837433,366.326324 459.067810,366.822144 
	C463.404999,367.330505 463.988037,370.670441 463.993408,374.627441 
	C463.999451,375.017761 464.025330,374.984222 464.025330,374.984222 
M460.526520,372.497437 
	C460.351410,370.848297 459.646820,369.650757 457.787292,369.861938 
	C456.679596,369.987762 456.235840,370.939728 456.127716,371.968781 
	C456.005890,373.128479 456.046295,374.381531 457.206787,374.964447 
	C459.036072,375.883270 459.833588,374.597626 460.526520,372.497437 
z"/>
<path fill="#000000" opacity="1.000000" stroke="none" 
	d="
M322.943054,368.857269 
	C327.933594,365.631348 331.879272,366.271881 333.460480,370.421936 
	C335.079071,374.670135 331.524231,379.141022 326.940704,378.148346 
	C324.389404,377.595764 321.988190,377.080719 319.312561,378.068237 
	C318.294373,374.330841 318.432892,370.955627 318.688751,367.703400 
	C320.835785,366.212463 321.192078,369.034058 322.943054,368.857269 
M328.348969,375.350525 
	C330.548218,374.327637 331.316772,372.778290 329.676575,370.764740 
	C328.754700,369.633026 327.315582,369.388641 326.360413,370.742950 
	C324.967590,372.717743 325.360596,374.390045 328.348969,375.350525 
z"/>
<path fill="#000000" opacity="1.000000" stroke="none" 
	d="
M338.989441,368.515259 
	C339.696533,369.425446 340.209137,370.058868 340.714142,370.682892 
	C342.982361,370.262909 341.487457,367.347046 344.076508,366.828918 
	C346.990875,369.841522 345.942902,373.608704 345.075287,377.103729 
	C344.707428,378.585388 342.926727,378.518280 341.774567,377.420898 
	C340.824066,376.515533 340.067719,375.406281 339.217834,374.378326 
	C337.250031,374.714691 338.298218,377.212311 336.610748,377.695343 
	C336.379669,377.640411 335.894806,377.665344 335.793335,377.480133 
	C334.085022,374.362946 334.276947,371.045166 335.551880,367.968750 
	C336.232300,366.326904 337.770966,367.158569 338.989441,368.515259 
z"/>
<path fill="#000000" opacity="1.000000" stroke="none" 
	d="
M430.993225,368.985809 
	C430.996521,371.843384 428.742065,374.558960 431.249176,377.976776 
	C428.217682,377.724060 425.834900,375.525452 423.763031,378.586639 
	C421.328491,374.462982 421.644684,370.344666 423.547424,367.420563 
	C425.181122,364.909882 428.337219,366.819366 430.745789,368.786499 
	C430.999573,368.999084 430.993225,368.985809 430.993225,368.985809 
z"/>
<path fill="#000000" opacity="1.000000" stroke="none" 
	d="
M476.008911,367.947418 
	C479.157745,366.008972 481.973267,366.119690 484.328735,368.566833 
	C486.068115,370.373840 486.484222,372.665588 485.381256,374.983917 
	C484.072540,377.734802 481.649261,378.383911 478.788330,378.340393 
	C476.235474,378.301544 475.284851,376.995056 475.151794,374.674927 
	C475.028076,372.517212 475.104401,370.390167 476.008911,367.947418 
M481.405975,370.364502 
	C478.381653,369.075287 478.436981,371.206238 478.434662,373.114471 
	C478.433075,374.403534 479.000366,375.667023 480.496277,375.147797 
	C482.643555,374.402466 483.086823,372.769379 481.405975,370.364502 
z"/>
<path fill="#000000" opacity="1.000000" stroke="none" 
	d="
M386.151428,378.036011 
	C384.131104,376.037628 382.389648,375.517090 380.696899,378.455414 
	C378.539795,375.690491 379.080750,373.011627 379.196106,370.429199 
	C379.312927,367.814240 380.562927,366.367554 383.337799,366.790588 
	C385.921936,367.184509 388.380859,368.562531 387.153900,371.285797 
	C386.067841,373.696289 388.902557,376.122467 386.151428,378.036011 
z"/>
<path fill="#000000" opacity="1.000000" stroke="none" 
	d="
M393.364868,376.234558 
	C393.219604,373.686218 393.038422,371.533051 393.039215,369.379913 
	C393.039856,367.594452 392.641083,365.347473 394.618408,364.486786 
	C396.828857,363.524597 399.323486,363.156738 401.447723,365.140533 
	C400.457581,367.110535 397.519470,365.730896 397.071777,368.199036 
	C397.046906,370.343018 399.749603,369.096802 400.278809,370.703278 
	C400.450745,373.133942 396.698914,371.657288 396.830750,374.306732 
	C397.267731,376.704681 400.691132,374.663818 401.511078,377.374207 
	C398.655396,378.434143 395.945618,379.630798 393.364868,376.234558 
z"/>
<path fill="#000000" opacity="1.000000" stroke="none" 
	d="
M234.328369,371.802124 
	C234.054123,374.078094 234.916199,376.201233 233.195480,377.821106 
	C230.210419,378.441010 230.192688,375.090698 228.097809,374.217987 
	C226.682312,374.871704 228.102859,377.667236 225.327194,377.816742 
	C223.626862,374.366150 224.836700,370.916016 225.086914,367.358002 
	C228.574432,367.470673 229.043854,370.411285 230.942932,371.657745 
	C231.924561,370.314148 230.807785,368.134003 232.915817,367.294739 
	C235.134354,368.014069 234.188660,369.922577 234.328369,371.802124 
z"/>
<path fill="#000000" opacity="1.000000" stroke="none" 
	d="
M206.763489,373.966644 
	C206.913422,375.394104 207.921936,376.346832 207.236526,377.819611 
	C205.180786,378.773376 202.896576,373.442627 200.802338,378.757111 
	C199.085739,374.369293 198.546616,370.797424 200.583313,367.604523 
	C201.620392,365.978699 203.973328,366.636627 205.627090,367.529388 
	C208.436234,369.045837 207.398254,371.410583 206.763489,373.966644 
z"/>
<path fill="#000000" opacity="1.000000" stroke="none" 
	d="
M246.033371,368.980042 
	C246.527161,370.429779 247.040649,371.569580 246.969971,372.671906 
	C246.719742,376.573883 243.473175,379.186951 239.682770,378.217926 
	C234.443237,376.878418 236.889313,372.405640 237.033279,369.475708 
	C237.231506,365.442078 240.805954,366.780579 243.282959,367.103516 
	C244.169281,367.219086 244.954041,368.113800 246.033371,368.980042 
M240.295319,370.045013 
	C239.073471,372.037445 238.505447,374.081543 241.083084,375.330688 
	C242.264664,375.903320 243.296829,374.809296 243.555481,373.614807 
	C244.019165,371.473450 243.782959,369.622131 240.295319,370.045013 
z"/>
<path fill="#000000" opacity="1.000000" stroke="none" 
	d="
M463.990295,375.037079 
	C464.974762,372.969788 465.856689,370.819824 466.993225,368.814148 
	C468.152100,366.769073 469.972229,366.206360 471.046997,368.634216 
	C472.278595,371.416412 474.061737,374.176941 473.538666,378.033203 
	C470.748596,376.673065 468.158325,374.777435 465.276093,377.649597 
	C464.495758,378.427246 464.085632,376.643433 464.019958,375.340454 
	C464.025330,374.984222 463.999451,375.017761 463.990295,375.037079 
z"/>
<path fill="#000000" opacity="1.000000" stroke="none" 
	d="
M347.366180,368.580688 
	C349.080200,366.691772 350.947754,366.004486 352.910614,367.062500 
	C355.078003,368.230774 353.595428,369.401855 352.634003,370.543518 
	C352.497894,370.705170 352.860016,371.451111 353.153931,371.782593 
	C354.672943,373.495483 355.081421,375.395264 353.418549,377.065796 
	C351.552032,378.940887 349.353058,378.648560 347.412720,377.532898 
	C346.547821,375.145569 348.839539,375.457672 349.463287,374.388397 
	C348.679718,372.563171 345.982941,371.497437 347.366180,368.580688 
z"/>
<path fill="#000000" opacity="1.000000" stroke="none" 
	d="
M220.336273,378.336975 
	C215.780869,377.686646 214.432663,375.075623 215.725754,369.511414 
	C216.713837,365.259583 219.633850,366.785095 222.095993,367.285553 
	C222.977905,369.191589 220.179565,369.780640 221.293625,371.580658 
	C222.508179,373.543091 220.483871,373.566925 219.411911,374.094086 
	C222.412109,376.452026 222.412109,376.452026 220.336273,378.336975 
z"/>
<path fill="#000000" opacity="1.000000" stroke="none" 
	d="
M162.976257,375.951355 
	C161.820343,379.350433 159.022247,378.400940 156.704468,378.101318 
	C154.083862,377.762543 154.798370,375.417358 154.680542,373.721191 
	C154.566010,372.072266 154.601730,370.408325 154.651840,368.753418 
	C154.810928,363.499390 156.684998,362.582336 161.941711,365.201355 
	C161.246689,367.294250 158.235474,365.558899 157.595612,368.153442 
	C157.247025,370.215332 160.537140,369.091125 160.740570,371.027985 
	C160.533447,372.906342 157.353973,371.823029 157.567062,374.351685 
	C158.454742,376.425171 160.668076,375.302124 162.621490,375.937927 
	C163.000153,375.987915 162.976257,375.951355 162.976257,375.951355 
z"/>
<path fill="#000000" opacity="1.000000" stroke="none" 
	d="
M163.014725,376.004089 
	C162.506851,372.623993 162.221313,369.220734 165.874252,367.284088 
	C167.916397,366.201447 169.915497,366.464661 171.815598,368.757935 
	C169.532639,369.968353 166.095383,368.814697 166.092010,372.533905 
	C166.088913,375.952209 169.314514,375.196930 171.708832,376.920868 
	C168.425232,379.159851 165.995483,378.283234 163.280334,376.168274 
	C162.976257,375.951355 163.000153,375.987915 163.014725,376.004089 
z"/>
<path fill="#000000" opacity="1.000000" stroke="none" 
	d="
M431.003601,369.004150 
	C431.426300,367.921814 432.311798,366.206360 433.266022,367.348602 
	C435.679688,370.237701 437.461853,368.209106 440.246490,366.343384 
	C440.166962,371.350372 436.801178,374.173706 436.240448,378.059784 
	C433.997742,375.288177 433.937164,371.723114 431.212585,369.232788 
	C430.993225,368.985809 430.999573,368.999084 431.003601,369.004150 
z"/>
<path fill="#000000" opacity="1.000000" stroke="none" 
	d="
M260.545349,368.270752 
	C262.386353,366.597229 263.975677,366.638428 263.082550,369.099579 
	C261.998352,372.087250 260.327240,374.916443 258.489471,378.001556 
	C257.227295,374.640808 255.965103,371.280029 254.728729,367.988037 
	C257.180908,366.520264 258.241791,370.863861 260.545349,368.270752 
z"/>
<path fill="#000000" opacity="1.000000" stroke="none" 
	d="
M251.245712,369.414276 
	C251.491394,372.557312 250.450607,375.891174 255.166077,376.277191 
	C253.472870,378.885712 251.566818,378.495453 249.972580,377.925751 
	C248.260696,377.314056 248.522858,375.495422 248.533936,374.022339 
	C248.546417,372.360291 248.408310,370.629181 248.820480,369.055023 
	C249.348541,367.038330 250.371338,367.065521 251.245712,369.414276 
z"/>
<path fill="#000000" opacity="1.000000" stroke="none" 
	d="
M209.563599,375.775818 
	C210.216888,372.836639 208.588806,369.836151 211.184143,366.890320 
	C213.192184,370.728271 212.270111,374.208191 212.152145,377.554749 
	C210.363693,378.371735 209.886337,377.384491 209.563599,375.775818 
z"/>
<path fill="#000000" opacity="1.000000" stroke="none" 
	d="
M487.232758,374.604248 
	C487.119720,372.026581 486.406738,369.704956 488.524750,367.391541 
	C490.160370,371.060913 489.010193,374.447723 489.164795,377.882782 
	C486.589966,377.715607 487.306763,376.131470 487.232758,374.604248 
z"/>
</svg>